PathFileType	4	(X/Y/Z)	C:/Users/opensim2020/Desktop/walking_exp_matlab/subject06_walking11_run_cyclic.trc																																																																																																																																								
DataRate	CameraRate	NumFrames	NumMarkers	Units	OrigDataRate	OrigDataStartFrame	OrigNumFrames																																																																																																																																				
100	100	6	46	mm	100	271	66																																																																																																																																				
Frame#	Time	LKNE			RKNE			RFRM			RWRA			RWRB			RELB			RUPA			RSHO			LWRA			RFIN			RFHD			CLAV			RASI			RTHI			LSHO			LTHI			RBHD			C7			LTIB			LANK			LTOE			LBHD			RTIB			RBAK			LHEE			RANK			STRN			RHEE			RTOE			T10			LUPA			LFHD			LPSI			RPSI			LASI			LFRM			LWRB			LFIN			LELB			*39			*40			*41			*42			*43			*44			*45		
		X1	Y1	Z1	X2	Y2	Z2	X3	Y3	Z3	X4	Y4	Z4	X5	Y5	Z5	X6	Y6	Z6	X7	Y7	Z7	X8	Y8	Z8	X9	Y9	Z9	X10	Y10	Z10	X11	Y11	Z11	X12	Y12	Z12	X13	Y13	Z13	X14	Y14	Z14	X15	Y15	Z15	X16	Y16	Z16	X17	Y17	Z17	X18	Y18	Z18	X19	Y19	Z19	X20	Y20	Z20	X21	Y21	Z21	X22	Y22	Z22	X23	Y23	Z23	X24	Y24	Z24	X25	Y25	Z25	X26	Y26	Z26	X27	Y27	Z27	X28	Y28	Z28	X29	Y29	Z29	X30	Y30	Z30	X31	Y31	Z31	X32	Y32	Z32	X33	Y33	Z33	X34	Y34	Z34	X35	Y35	Z35	X36	Y36	Z36	X37	Y37	Z37	X38	Y38	Z38	X39	Y39	Z39	X40	Y40	Z40	X41	Y41	Z41	X42	Y42	Z42	X43	Y43	Z43	X44	Y44	Z44	X45	Y45	Z45	X46	Y46	Z46
																																																																																																																																											
57	0.56	1512.05115	436.65335	55.94724	1539.2865	486.48669	300.96115	1440.52637	1063.86084	463.02454	1550.19678	1099.06909	377.79013	1555.21899	1036.21545	401.4375	1355.24597	1108.77637	496.34851	1372.88867	1209.2478	466.20096	1475.73535	1364.78284	364.61804	1573.04736	1159.32861	33.28543	1630.69543	1063.11279	376.0946	1551.59705	1621.45923	285.47665	1542.50134	1334.94568	208.77539	1508.61841	925.69678	308.92868	1502.18726	604.76611	344.54498	1489.65942	1385.11353	48.3434	1487.53223	595.52313	29.31752	1426.45447	1555.46436	289.04623	1434.3158	1417.74646	203.6423	1291.11023	361.52695	54.00177	1128.32715	316.20663	79.48654	1139.13489	172.75937	75.03865	1417.03186	1562.33923	160.27811	1453.15771	239.5741	272.39545	1342.6571	1251.34888	255.26901	1100.39038	346.39352	127.10174	1368.20752	81.10207	206.87207	1567.92786	1153.35083	196.87662	1316.37378	74.15549	167.37894	1511.94214	31.04537	180.90051	1371.78906	1095.51306	179.92155	1430.9093	1227.93237	-65.86481	1542.34583	1634.34094	152.96684	1371.45593	955.04504	99.1722	1361.4552	967.55493	269.69687	1525.72229	910.24841	91.79478	1503.36157	1099.79895	-55.70033	1585.3689	1089.88892	26.01457	1655.52856	1126.3645	71.38371	1394.23279	1140.88794	-109.63612	NaN	NaN	NaN	1441.2428	1658.0343	219.64597	NaN	NaN	NaN	NaN	NaN	NaN	NaN	NaN	NaN	NaN	NaN	NaN	NaN	NaN	NaN
58	0.57	1575.49451	440.6785	55.96165	1559.67737	479.14908	299.42328	1495.95557	1055.82739	458.80463	1600.81445	1095.09485	370.5018	1606.78711	1030.69812	391.00171	1410.46289	1098.65881	495.4939	1422.2063	1200.79224	466.24228	1518.25256	1360.43152	365.09714	1603.21497	1151.83435	27.72854	1681.74084	1060.76709	367.42914	1590.93616	1618.52002	284.91254	1580.34949	1332.19775	207.38641	1545.6333	918.80811	308.4632	1529.22046	599.3985	342.87457	1522.75305	1382.52722	48.3498	1541.02551	597.13513	27.75306	1465.88721	1552.2168	290.01694	1472.46985	1415.39575	204.83632	1358.4137	357.48224	50.67986	1197.02344	305.76959	73.9706	1215.46692	163.36478	66.974	1454.70239	1559.23889	161.44611	1459.42114	234.89355	269.89108	1380.89148	1248.18237	260.2016	1166.79321	333.80255	121.5663	1369.17444	81.17641	204.65703	1606.36279	1150.67517	194.87163	1316.64502	76.54163	165.48973	1511.26538	30.90767	180.1908	1410.30017	1093.01587	182.12904	1456.60754	1228.96802	-64.50049	1579.88745	1631.55701	152.45038	1407.9668	952.34503	99.79415	1398.75366	965.64508	269.76089	1562.4519	906.66644	90.51312	1528.64551	1096.64343	-60.24645	1613.33228	1082.35242	17.58536	1686.40088	1115.02197	61.65404	1418.30481	1142.64075	-108.37769	NaN	NaN	NaN	1479.58948	1654.83191	220.52473	NaN	NaN	NaN	NaN	NaN	NaN	NaN	NaN	NaN	NaN	NaN	NaN	NaN	NaN	NaN
59	0.58	1638.3512	448.3757	57.0129	1578.29053	472.87424	298.58423	1550.86719	1051.48804	452.77524	1650.57153	1096.11755	362.10696	1659.39722	1031.96887	382.36545	1465.18286	1092.32996	494.13745	1472.16919	1194.98132	466.64209	1560.67249	1358.38831	364.79684	1632.64746	1147.65747	22.81927	1732.03577	1065.08044	356.70941	1630.40271	1617.1842	284.12915	1618.3783	1331.51514	205.77467	1584.11633	914.87061	307.26157	1554.81677	594.51154	341.47653	1554.97815	1382.12964	48.96304	1593.53528	601.89038	26.33922	1505.18811	1551.31775	290.67416	1509.68164	1413.5094	206.18999	1426.23438	354.82541	48.08752	1267.06287	294.4743	69.1674	1294.15344	153.71179	60.13866	1492.52148	1558.47217	162.27986	1464.98608	232.30244	267.54025	1420.28809	1246.33801	265.35394	1234.44775	320.09616	116.4482	1369.82935	82.86938	203.70923	1645.29504	1149.73694	192.53036	1317.40918	80.54708	164.96049	1510.69751	30.85133	179.84984	1448.57031	1092.14038	184.6806	1482.52466	1231.97729	-62.79719	1617.86438	1630.29529	151.89166	1445.08569	952.20111	100.20366	1437.78638	965.01465	270.04636	1598.84448	905.31525	88.56874	1553.71655	1096.14429	-64.17926	1640.84448	1078.49829	9.42567	1716.21912	1107.95691	52.03432	1442.15381	1147.40503	-106.37031	NaN	NaN	NaN	1518.49438	1653.91199	221.02657	NaN	NaN	NaN	NaN	NaN	NaN	NaN	NaN	NaN	NaN	NaN	NaN	NaN	NaN	NaN
60	0.59	1700.02466	459.57742	58.30576	1596.06213	467.87848	298.00595	1605.08203	1051.88452	447.08536	1698.3208	1102.17676	353.55286	1710.9043	1038.74683	372.91693	1519.36267	1088.55139	492.61053	1522.12793	1191.2522	467.05789	1603.39917	1358.70715	364.69901	1661.34363	1146.86292	18.17376	1780.39209	1075.56653	344.82782	1669.95435	1617.42188	283.05527	1656.08813	1332.37354	204.41159	1623.7843	913.32678	305.64383	1579.24658	590.86371	339.93692	1586.78748	1383.70386	50.01643	1645.08386	609.31445	25.49095	1544.34692	1552.67261	291.17163	1546.55554	1412.90784	207.68349	1493.96973	353.59473	46.32582	1338.31738	282.54163	65.26894	1375.53906	144.35524	54.49071	1530.46191	1559.85242	162.90398	1472.33667	232.81273	267.63751	1460.86682	1246.24219	270.31198	1303.36536	305.51486	112.46282	1371.29443	86.39706	204.49637	1684.20081	1150.8634	189.99072	1318.98474	86.14753	165.58754	1510.19421	30.73322	179.77766	1486.70642	1092.10693	187.25664	1509.01453	1236.58496	-60.88208	1656.36316	1630.87817	150.96458	1482.80298	953.73541	100.99907	1477.69641	965.64185	270.51785	1635.56213	906.33154	86.45634	1578.51904	1098.38855	-67.59463	1668.11487	1078.18225	1.78557	1745.24768	1105.18994	43.11225	1466.45129	1153.56714	-104.43855	NaN	NaN	NaN	1557.84192	1655.19092	221.35329	NaN	NaN	NaN	NaN	NaN	NaN	NaN	NaN	NaN	NaN	NaN	NaN	NaN	NaN	NaN
61	0.6	1759.83704	473.70236	59.62206	1613.66809	465.02042	297.64188	1657.48962	1056.24951	441.70688	1744.05762	1112.19104	345.02411	1761.81946	1049.88086	364.405	1572.66516	1087.30176	490.65298	1572.36572	1189.95288	467.63116	1645.67578	1361.04199	364.6752	1689.703	1149.05127	13.84636	1826.86157	1091.1521	332.57022	1709.74658	1619.63794	282.43387	1694.70789	1335.0293	202.52846	1663.85864	913.61401	304.04926	1602.26575	588.93628	337.11859	1618.52478	1386.93909	51.14655	1695.24805	618.87573	25.58186	1583.69019	1556.05151	291.69608	1584.0564	1414.60449	209.62389	1561.34619	353.55585	45.40224	1410.62659	270.20203	62.77426	1458.49133	135.13242	51.65387	1568.45935	1563.13879	163.37947	1480.60437	235.85907	268.54611	1501.50464	1248.05383	274.65558	1373.552	290.43329	109.57359	1373.86584	92.37469	206.7905	1723.02185	1153.83838	187.4922	1321.84338	94.65514	168.32532	1509.66772	30.74762	180.03789	1526.71545	1093.33081	189.99796	1536.37805	1242.95654	-59.15646	1694.81921	1632.81177	150.28795	1521.09961	956.91174	102.0624	1518.83826	967.64911	271.53461	1673.41028	909.9035	84.79149	1603.4801	1103.58203	-70.68532	1695.37085	1080.95093	-5.11733	1773.98364	1106.15466	35.0218	1491.23987	1160.98706	-102.327	NaN	NaN	NaN	1597.29871	1658.21814	221.38174	NaN	NaN	NaN	NaN	NaN	NaN	NaN	NaN	NaN	NaN	NaN	NaN	NaN	NaN	NaN
62	0.61	1816.98047	489.84631	60.98764	1631.39099	465.32785	297.84039	1708.60437	1063.56995	436.31442	1788.55164	1125.38611	337.29236	1810.77197	1064.38391	355.3111	1625.23572	1089.10522	488.99432	1622.36633	1191.07324	468.14133	1687.99109	1365.42517	364.46576	1718.29688	1153.74744	9.66043	1871.80798	1109.9314	321.07471	1749.3418	1623.52893	281.47147	1733.11279	1339.45959	200.82959	1704.54272	915.8811	302.92017	1627.43494	590.60242	335.7662	1651.11536	1391.6991	52.24664	1743.55859	629.92914	26.7741	1622.98511	1561.1001	292.099	1622.21204	1418.47388	211.16437	1627.703	353.81332	45.34951	1483.98926	257.69318	61.98562	1542.65637	126.91756	50.84259	1606.65698	1568.03967	163.58774	1489.67944	241.33751	269.82574	1542.54822	1251.63171	278.65433	1445.12292	275.07657	108.41444	1378.37524	100.75272	209.99084	1761.90491	1158.47107	185.17899	1326.75195	105.59939	172.24176	1509.58032	30.52612	180.30971	1566.74109	1096.45654	192.86099	1564.68335	1250.53577	-57.18085	1733.4342	1636.54321	149.61534	1560.02881	961.87433	103.39022	1560.0238	970.9104	272.8519	1712.62024	915.552	84.08398	1628.77283	1111.13403	-73.09927	1722.90405	1086.1499	-11.15716	1802.87769	1109.90503	27.78365	1516.75122	1169.71313	-99.98985	NaN	NaN	NaN	1636.82947	1662.96533	221.25502	NaN	NaN	NaN	NaN	NaN	NaN	NaN	NaN	NaN	NaN	NaN	NaN	NaN	NaN	NaN
